<svg width="21" height="22" viewBox="0 0 21 22" fill="none" xmlns="http://www.w3.org/2000/svg">
<path opacity="0.6" fill-rule="evenodd" clip-rule="evenodd" d="M14 9V14L16 16V17H0.707107C0.316583 17 0 16.6834 0 16.2929C0 16.1054 0.0744982 15.9255 0.207106 15.7929L2 14V9C2 5.92 3.63 3.36 6.5 2.68V2C6.5 1.17 7.17 0.5 8 0.5C8.83 0.5 9.5 1.17 9.5 2V2.68C12.36 3.36 14 5.93 14 9ZM10 18C10 19.1 9.1 20 8 20C6.89 20 6 19.1 6 18H10Z" fill="#8894A0"/>
<path fill-rule="evenodd" clip-rule="evenodd" d="M15 21C17.7614 21 20 18.7614 20 16C20 13.2386 17.7614 11 15 11C12.2386 11 10 13.2386 10 16C10 18.7614 12.2386 21 15 21Z" fill="#D50000" stroke="black"/>
</svg>
