<svg width="20" height="16" viewBox="0 0 20 16" fill="none" xmlns="http://www.w3.org/2000/svg">
<path fill-rule="evenodd" clip-rule="evenodd" d="M0 1.75C0 2.4375 0.45 3 1 3H19C19.55 3 20 2.4375 20 1.75C20 1.0625 19.55 0.5 19 0.5H1C0.45 0.5 0 1.0625 0 1.75ZM0 8C0 8.6875 0.45 9.25 1 9.25H19C19.55 9.25 20 8.6875 20 8C20 7.3125 19.55 6.75 19 6.75H1C0.45 6.75 0 7.3125 0 8ZM1 15.5C0.45 15.5 0 14.9375 0 14.25C0 13.5625 0.45 13 1 13H19C19.55 13 20 13.5625 20 14.25C20 14.9375 19.55 15.5 19 15.5H1Z" fill="#808080"/>
</svg>
