<svg width="28" height="28" viewBox="0 0 28 28" fill="none" xmlns="http://www.w3.org/2000/svg">
<path fill-rule="evenodd" clip-rule="evenodd" d="M8.33366 9.33335C8.88594 9.33335 9.33366 8.88564 9.33366 8.33335V5.66669C9.33366 5.1144 8.88594 4.66669 8.33366 4.66669H5.66699C5.11471 4.66669 4.66699 5.1144 4.66699 5.66669V8.33335C4.66699 8.88564 5.11471 9.33335 5.66699 9.33335H8.33366ZM15.3337 23.3334C15.8859 23.3334 16.3337 22.8856 16.3337 22.3334V19.6667C16.3337 19.1144 15.8859 18.6667 15.3337 18.6667H12.667C12.1147 18.6667 11.667 19.1144 11.667 19.6667V22.3334C11.667 22.8856 12.1147 23.3334 12.667 23.3334H15.3337ZM8.33366 23.3334C8.88594 23.3334 9.33366 22.8856 9.33366 22.3334V19.6667C9.33366 19.1144 8.88594 18.6667 8.33366 18.6667H5.66699C5.11471 18.6667 4.66699 19.1144 4.66699 19.6667V22.3334C4.66699 22.8856 5.11471 23.3334 5.66699 23.3334H8.33366ZM8.33366 16.3334C8.88594 16.3334 9.33366 15.8856 9.33366 15.3334V12.6667C9.33366 12.1144 8.88594 11.6667 8.33366 11.6667H5.66699C5.11471 11.6667 4.66699 12.1144 4.66699 12.6667V15.3334C4.66699 15.8856 5.11471 16.3334 5.66699 16.3334H8.33366ZM15.3337 16.3334C15.8859 16.3334 16.3337 15.8856 16.3337 15.3334V12.6667C16.3337 12.1144 15.8859 11.6667 15.3337 11.6667H12.667C12.1147 11.6667 11.667 12.1144 11.667 12.6667V15.3334C11.667 15.8856 12.1147 16.3334 12.667 16.3334H15.3337ZM18.667 8.33335C18.667 8.88564 19.1147 9.33335 19.667 9.33335H22.3337C22.8859 9.33335 23.3337 8.88564 23.3337 8.33335V5.66669C23.3337 5.1144 22.8859 4.66669 22.3337 4.66669H19.667C19.1147 4.66669 18.667 5.1144 18.667 5.66669V8.33335ZM15.3337 9.33335C15.8859 9.33335 16.3337 8.88564 16.3337 8.33335V5.66669C16.3337 5.1144 15.8859 4.66669 15.3337 4.66669H12.667C12.1147 4.66669 11.667 5.1144 11.667 5.66669V8.33335C11.667 8.88564 12.1147 9.33335 12.667 9.33335H15.3337ZM22.3337 16.3334C22.8859 16.3334 23.3337 15.8856 23.3337 15.3334V12.6667C23.3337 12.1144 22.8859 11.6667 22.3337 11.6667H19.667C19.1147 11.6667 18.667 12.1144 18.667 12.6667V15.3334C18.667 15.8856 19.1147 16.3334 19.667 16.3334H22.3337ZM22.3337 23.3334C22.8859 23.3334 23.3337 22.8856 23.3337 22.3334V19.6667C23.3337 19.1144 22.8859 18.6667 22.3337 18.6667H19.667C19.1147 18.6667 18.667 19.1144 18.667 19.6667V22.3334C18.667 22.8856 19.1147 23.3334 19.667 23.3334H22.3337Z" fill="#525960"/>
<mask id="mask0_2_954" style="mask-type:alpha" maskUnits="userSpaceOnUse" x="4" y="4" width="20" height="20">
<path fill-rule="evenodd" clip-rule="evenodd" d="M8.33366 9.33335C8.88594 9.33335 9.33366 8.88564 9.33366 8.33335V5.66669C9.33366 5.1144 8.88594 4.66669 8.33366 4.66669H5.66699C5.11471 4.66669 4.66699 5.1144 4.66699 5.66669V8.33335C4.66699 8.88564 5.11471 9.33335 5.66699 9.33335H8.33366ZM15.3337 23.3334C15.8859 23.3334 16.3337 22.8856 16.3337 22.3334V19.6667C16.3337 19.1144 15.8859 18.6667 15.3337 18.6667H12.667C12.1147 18.6667 11.667 19.1144 11.667 19.6667V22.3334C11.667 22.8856 12.1147 23.3334 12.667 23.3334H15.3337ZM8.33366 23.3334C8.88594 23.3334 9.33366 22.8856 9.33366 22.3334V19.6667C9.33366 19.1144 8.88594 18.6667 8.33366 18.6667H5.66699C5.11471 18.6667 4.66699 19.1144 4.66699 19.6667V22.3334C4.66699 22.8856 5.11471 23.3334 5.66699 23.3334H8.33366ZM8.33366 16.3334C8.88594 16.3334 9.33366 15.8856 9.33366 15.3334V12.6667C9.33366 12.1144 8.88594 11.6667 8.33366 11.6667H5.66699C5.11471 11.6667 4.66699 12.1144 4.66699 12.6667V15.3334C4.66699 15.8856 5.11471 16.3334 5.66699 16.3334H8.33366ZM15.3337 16.3334C15.8859 16.3334 16.3337 15.8856 16.3337 15.3334V12.6667C16.3337 12.1144 15.8859 11.6667 15.3337 11.6667H12.667C12.1147 11.6667 11.667 12.1144 11.667 12.6667V15.3334C11.667 15.8856 12.1147 16.3334 12.667 16.3334H15.3337ZM18.667 8.33335C18.667 8.88564 19.1147 9.33335 19.667 9.33335H22.3337C22.8859 9.33335 23.3337 8.88564 23.3337 8.33335V5.66669C23.3337 5.1144 22.8859 4.66669 22.3337 4.66669H19.667C19.1147 4.66669 18.667 5.1144 18.667 5.66669V8.33335ZM15.3337 9.33335C15.8859 9.33335 16.3337 8.88564 16.3337 8.33335V5.66669C16.3337 5.1144 15.8859 4.66669 15.3337 4.66669H12.667C12.1147 4.66669 11.667 5.1144 11.667 5.66669V8.33335C11.667 8.88564 12.1147 9.33335 12.667 9.33335H15.3337ZM22.3337 16.3334C22.8859 16.3334 23.3337 15.8856 23.3337 15.3334V12.6667C23.3337 12.1144 22.8859 11.6667 22.3337 11.6667H19.667C19.1147 11.6667 18.667 12.1144 18.667 12.6667V15.3334C18.667 15.8856 19.1147 16.3334 19.667 16.3334H22.3337ZM22.3337 23.3334C22.8859 23.3334 23.3337 22.8856 23.3337 22.3334V19.6667C23.3337 19.1144 22.8859 18.6667 22.3337 18.6667H19.667C19.1147 18.6667 18.667 19.1144 18.667 19.6667V22.3334C18.667 22.8856 19.1147 23.3334 19.667 23.3334H22.3337Z" fill="white"/>
</mask>
<g mask="url(#mask0_2_954)">
</g>
</svg>
