<svg width="130" height="40" viewBox="0 0 130 40" fill="none" xmlns="http://www.w3.org/2000/svg">
<path d="M110.435 28.5712C109.521 28.5834 108.613 28.4316 107.756 28.1232C106.985 27.8458 106.285 27.407 105.704 26.8371C105.123 26.2673 104.674 25.5799 104.39 24.8226C104.071 23.978 103.913 23.0825 103.925 22.1815C103.914 21.2767 104.071 20.3776 104.39 19.5289C104.677 18.7686 105.125 18.0771 105.705 17.5003C106.289 16.9336 106.986 16.492 107.752 16.2032C108.608 15.8877 109.517 15.7326 110.431 15.746C111.349 15.7333 112.262 15.8883 113.123 16.2032C113.893 16.4896 114.595 16.9314 115.182 17.5003C115.761 18.0773 116.21 18.7687 116.498 19.5289C116.816 20.3778 116.973 21.2768 116.962 22.1815C116.974 23.0825 116.817 23.9778 116.498 24.8226C116.208 25.578 115.759 26.2649 115.182 26.8386C114.596 27.4063 113.894 27.8443 113.123 28.1232C112.261 28.4305 111.351 28.5823 110.435 28.5712ZM110.435 18.266C109.925 18.2486 109.42 18.3671 108.973 18.6089C108.594 18.8265 108.273 19.1292 108.035 19.4923C107.792 19.8746 107.623 20.2982 107.536 20.7415C107.438 21.215 107.389 21.6971 107.39 22.1803C107.389 22.6594 107.438 23.1373 107.536 23.6066C107.625 24.0491 107.794 24.4722 108.035 24.8557C108.269 25.2226 108.591 25.5266 108.973 25.7403C109.423 25.974 109.927 26.0879 110.435 26.0706C110.947 26.0868 111.454 25.9731 111.909 25.7403C112.296 25.529 112.623 25.2247 112.859 24.8557C113.1 24.472 113.269 24.049 113.358 23.6066C113.456 23.1373 113.505 22.6594 113.505 22.1803C113.505 21.6971 113.456 21.2151 113.358 20.7415C113.272 20.2983 113.102 19.8748 112.859 19.4923C112.619 19.1273 112.293 18.8243 111.909 18.6089C111.457 18.3681 110.948 18.2498 110.435 18.266ZM88.2626 28.5712C87.4035 28.5885 86.5523 28.4068 85.7775 28.0409C85.083 27.7031 84.4782 27.2104 84.0109 26.602C83.5382 25.9743 83.1843 25.2678 82.9663 24.5163C82.7314 23.7195 82.6141 22.8935 82.6181 22.0637C82.6146 21.2611 82.732 20.4623 82.9663 19.6935C83.1848 18.9636 83.5391 18.28 84.0109 17.6775C84.5048 17.0552 85.1403 16.556 85.8661 16.2201C86.5919 15.8842 87.3878 15.721 88.1895 15.7437C88.9252 15.7413 89.6526 15.8973 90.3206 16.2009C90.975 16.4921 91.5294 16.9642 91.9165 17.5597H91.9653V11.4283H95.4254V28.2649H92.1371V26.7083H92.0883C91.7188 27.3343 91.1618 27.8325 90.4935 28.1346C89.7896 28.4337 89.0292 28.5825 88.2626 28.5712ZM89.1146 18.266C88.6145 18.2505 88.119 18.3644 87.6776 18.5963C87.2975 18.8079 86.9756 19.1076 86.7398 19.4695C86.4965 19.8492 86.3232 20.2682 86.2279 20.7072C86.1214 21.1834 86.0685 21.6698 86.07 22.1575C86.0709 22.634 86.1282 23.1088 86.2407 23.5723C86.3456 24.0202 86.5312 24.446 86.7885 24.8295C87.0344 25.1931 87.3586 25.499 87.738 25.7255C88.156 25.9625 88.6324 26.0811 89.1146 26.0683C89.6092 26.0856 90.0996 25.9727 90.5353 25.7415C90.9108 25.5269 91.2254 25.2227 91.4499 24.8569C91.6843 24.4684 91.8492 24.0432 91.9374 23.5997C92.0352 23.1185 92.0838 22.6288 92.0825 22.138C92.0858 21.6504 92.0387 21.1637 91.9421 20.6855C91.8552 20.2494 91.6854 19.8333 91.4418 19.4592C91.2079 19.1075 90.8955 18.8132 90.5283 18.5986C90.0966 18.3642 89.6085 18.2493 89.1157 18.266H89.1146ZM73.3022 28.5712C72.5269 28.5948 71.7539 28.4746 71.0237 28.2169C70.4744 28.0116 69.9907 27.6656 69.6228 27.2146C69.2665 26.7476 69.0209 26.2079 68.9043 25.6352C68.7612 24.9587 68.692 24.269 68.6977 23.578V16.0729H72.1578V22.9586C72.1056 23.7393 72.2739 24.5189 72.6441 25.2112C72.8423 25.472 73.1059 25.6776 73.409 25.8078C73.7122 25.938 74.0446 25.9884 74.3736 25.954C74.7557 25.9878 75.1405 25.9319 75.4965 25.7909C75.8524 25.6498 76.1693 25.4276 76.4211 25.1426C76.9121 24.3379 77.1338 23.4016 77.0548 22.466V16.0729H80.5149V28.2649H77.2254V26.5666H77.1523C76.7544 27.2359 76.1594 27.7703 75.4461 28.0992C74.7745 28.4074 74.0431 28.5684 73.3022 28.5712ZM52.3479 28.5712C51.6274 28.572 50.9087 28.5008 50.2029 28.3586C49.5455 28.2335 48.9153 27.9961 48.3411 27.6569C47.7528 27.3106 47.2668 26.8189 46.9312 26.2304C46.5957 25.642 46.4223 24.9774 46.4283 24.3026H49.7177C49.7096 24.6279 49.7897 24.9494 49.9499 25.234C50.0991 25.487 50.3032 25.7044 50.5476 25.8706C50.8034 26.0405 51.088 26.1639 51.388 26.2352C51.7113 26.3129 52.043 26.3512 52.3758 26.3495C52.6337 26.3477 52.8908 26.3197 53.143 26.266C53.3981 26.2156 53.6441 26.1282 53.8731 26.0066C54.089 25.8917 54.2761 25.7308 54.4209 25.5357C54.5734 25.3178 54.6503 25.0573 54.6403 24.7929C54.6403 24.2923 54.2921 23.9106 53.605 23.6603C52.6617 23.3419 51.6966 23.0898 50.7171 22.906C50.2134 22.7917 49.7177 22.6649 49.243 22.5163C48.7917 22.379 48.362 22.1805 47.9662 21.9266C47.6007 21.6911 47.2927 21.3789 47.0643 21.0123C46.8258 20.6001 46.7069 20.1312 46.7208 19.6569C46.6933 18.9812 46.8581 18.3115 47.1967 17.7232C47.5057 17.2287 47.937 16.8194 48.4502 16.5335C48.996 16.2341 49.5888 16.0267 50.2041 15.9197C50.8635 15.8015 51.5325 15.7422 52.2028 15.7426C52.8695 15.7415 53.5347 15.805 54.1888 15.9323C54.7946 16.0447 55.3759 16.2601 55.9066 16.5689C56.4101 16.8684 56.8389 17.2753 57.1614 17.7597C57.5162 18.3255 57.7209 18.97 57.7568 19.634H54.4685C54.4746 19.369 54.4075 19.1073 54.2744 18.8769C54.1414 18.6464 53.9473 18.4559 53.7129 18.3255C53.2117 18.0876 52.6604 17.9701 52.1042 17.9826C51.8928 17.9836 51.6817 17.9954 51.4716 18.018C51.2579 18.0381 51.0486 18.0898 50.8506 18.1712C50.6671 18.2476 50.5042 18.365 50.3747 18.514C50.2381 18.6851 50.1693 18.8991 50.1809 19.1163C50.1773 19.2555 50.2061 19.3936 50.2651 19.5202C50.324 19.6468 50.4115 19.7584 50.5209 19.8466C50.7853 20.0537 51.0875 20.2089 51.4112 20.3037C51.8229 20.4336 52.2418 20.54 52.6659 20.6226C53.1418 20.7186 53.6258 20.8215 54.1029 20.9289C54.6009 21.0376 55.0929 21.1715 55.577 21.33C56.0313 21.4755 56.4615 21.6857 56.8538 21.954C57.2217 22.2082 57.529 22.5381 57.7545 22.9209C57.9943 23.3582 58.1121 23.8504 58.0957 24.3472C58.12 25.0515 57.9474 25.7488 57.5966 26.3632C57.2739 26.8957 56.8276 27.3453 56.2943 27.6752C55.7291 28.0151 55.1057 28.2506 54.4546 28.37C53.7606 28.5039 53.0551 28.5713 52.3479 28.5712ZM65.0171 28.3815C64.5075 28.3832 63.9985 28.3476 63.4942 28.2752C63.0495 28.2155 62.6199 28.0757 62.2267 27.8626C61.8618 27.6566 61.5624 27.3547 61.362 26.9906C61.1323 26.5291 61.0234 26.0184 61.0451 25.5049V18.314H58.9512V16.0729H61.0463V12.4192H64.5063V16.0763H67.0402V18.3163H64.5063V24.3529C64.4578 24.7527 64.5621 25.156 64.7988 25.4843C65.1414 25.7145 65.5569 25.8151 65.9688 25.7677C66.158 25.7677 66.3472 25.7597 66.5283 25.7437C66.7094 25.7277 66.8765 25.7037 67.0402 25.6729V28.2672C66.7173 28.3167 66.3917 28.348 66.0652 28.3609C65.7263 28.3746 65.3734 28.3826 65.0182 28.3826L65.0171 28.3815ZM129.999 28.2649H118.426V25.7415L124.981 18.5963H118.914V16.0729H129.535V18.5963L122.981 25.7415H129.999V28.2637V28.2649ZM101.59 28.2649H98.131V16.0729H101.591V28.2637L101.59 28.2649ZM101.59 14.1872H98.131V11.4283H101.591V14.186L101.59 14.1872Z" fill="white"/>
<path d="M40.6249 20C40.6249 23.9556 39.4336 27.8224 37.2016 31.1114C34.9697 34.4004 31.7973 36.9638 28.0857 38.4776C24.3741 39.9913 20.2899 40.3874 16.3497 39.6157C12.4095 38.844 8.79012 36.9392 5.94938 34.1421C3.10863 31.3451 1.17406 27.7814 0.390299 23.9018C-0.393461 20.0222 0.00879338 16.0008 1.54619 12.3463C3.08359 8.69181 5.68709 5.56823 9.02746 3.37061C12.3678 1.17298 16.295 0 20.3124 0C25.6996 0 30.8662 2.10714 34.6755 5.85786C38.4848 9.60859 40.6249 14.6957 40.6249 20Z" fill="#ED357E"/>
<path d="M11.375 18.4V16.056H13.4492V15.0697C13.4287 14.5607 13.5104 14.0526 13.6896 13.5747C13.8689 13.0967 14.1422 12.6583 14.4938 12.2846C14.9183 11.8976 15.4197 11.6014 15.9663 11.4147C16.5129 11.2281 17.0928 11.155 17.6695 11.2C17.9791 11.2 18.2886 11.2122 18.5981 11.2366C18.9076 11.261 19.2083 11.2816 19.5 11.2983V13.9109C19.079 13.8606 18.6554 13.8358 18.2313 13.8366C18.0481 13.819 17.8631 13.8396 17.6885 13.8971C17.5139 13.9546 17.3536 14.0477 17.218 14.1703C16.9829 14.4963 16.8746 14.8946 16.9128 15.2926V16.056H19.3038V18.4H16.9139V28.8H13.4492V18.4H11.375Z" fill="#FEFEFE"/>
<path d="M25.6228 28.8004V18.4644H21.125V16.1375C21.7371 16.1535 22.3493 16.1075 22.952 16.0004C23.5084 15.9075 24.0444 15.7207 24.5363 15.4484C25.0025 15.1861 25.4074 14.8302 25.7249 14.4038C26.066 13.9279 26.2851 13.3778 26.3633 12.8004H29.25V28.8004H25.6228Z" fill="#FEFEFE"/>
</svg>
