<svg width="25" height="25" viewBox="0 0 25 25" fill="none" xmlns="http://www.w3.org/2000/svg">
<path fill-rule="evenodd" clip-rule="evenodd" d="M20.8297 7.48934L17.1284 4.5L16.0824 5.64975L19.7837 8.63908L20.8297 7.48934ZM9.48593 5.72592L8.43992 4.57617L4.73865 7.48886L5.78466 8.63861L9.48593 5.72592ZM11.9838 9.25195H13.1907V13.3144L16.4092 15.154L15.7655 16.0738L11.9838 13.8509V9.25195ZM12.7849 6.18652C8.76183 6.18652 5.54333 9.25251 5.54333 13.085C5.54333 16.9175 8.76183 19.9835 12.7849 19.9835C16.8081 19.9835 20.0266 16.9175 20.0266 13.085C20.0266 9.25251 16.8081 6.18652 12.7849 6.18652ZM7.15271 13.0852C7.15271 16.0746 9.64704 18.4507 12.7851 18.4507C15.9231 18.4507 18.4174 16.0746 18.4174 13.0852C18.4174 10.0959 15.9231 7.71973 12.7851 7.71973C9.64704 7.71973 7.15271 10.0959 7.15271 13.0852Z" fill="#2A292A"/>
</svg>
