<svg width="13" height="17" viewBox="0 0 13 17" fill="none" xmlns="http://www.w3.org/2000/svg">
<path fill-rule="evenodd" clip-rule="evenodd" d="M12.7015 3.25497V6.92383V10.8539V14.9702C12.7015 15.7361 12.0736 16.3591 11.3018 16.3591H1.97007C1.19824 16.3591 0.570312 15.7361 0.570312 14.9702V1.94553C0.570312 1.1797 1.19824 0.556641 1.97007 0.556641H9.98207C10.356 0.556641 10.7075 0.701085 10.9719 0.963431L12.2915 2.27291C12.5559 2.53522 12.7015 2.88399 12.7015 3.25497ZM9.92459 1.48265L9.90234 1.48285V3.3347H11.7687L11.7688 3.3149C11.7695 3.21524 11.7706 3.06541 11.632 2.92791L10.3123 1.61843C10.1723 1.47954 10.0171 1.48149 9.92459 1.48265ZM11.7681 14.9701C11.7681 15.2254 11.5588 15.433 11.3015 15.433H1.96982C1.71255 15.433 1.50324 15.2254 1.50324 14.9701V1.94538C1.50324 1.69011 1.71255 1.48242 1.96982 1.48242H8.96859V3.79724C8.96859 4.05292 9.1775 4.2602 9.43518 4.2602H11.7681V7.61133H11.7756V14.4967H11.7681V14.9701Z" fill="#2A292A"/>
<path d="M10.9719 0.963431L10.831 1.10539L10.831 1.1054L10.9719 0.963431ZM12.2915 2.27291L12.1506 2.41487L12.1507 2.41489L12.2915 2.27291ZM9.90234 1.48285L9.90061 1.28285L9.70234 1.28457V1.48285H9.90234ZM9.92459 1.48265L9.92632 1.68265L9.9271 1.68264L9.92459 1.48265ZM9.90234 3.3347H9.70234V3.5347H9.90234V3.3347ZM11.7687 3.3347V3.5347H11.9677L11.9687 3.33566L11.7687 3.3347ZM11.7688 3.3149L11.5688 3.31347L11.5688 3.31393L11.7688 3.3149ZM11.632 2.92791L11.7729 2.78595L11.7729 2.78594L11.632 2.92791ZM10.3123 1.61843L10.4532 1.47646L10.4532 1.47645L10.3123 1.61843ZM8.96859 1.48242H9.16859V1.28242H8.96859V1.48242ZM11.7681 4.2602H11.9681V4.0602H11.7681V4.2602ZM11.7681 7.61133H11.5681V7.81133H11.7681V7.61133ZM11.7756 7.61133H11.9756V7.41133H11.7756V7.61133ZM11.7756 14.4967V14.6967H11.9756V14.4967H11.7756ZM11.7681 14.4967V14.2967H11.5681V14.4967H11.7681ZM12.9015 6.92383V3.25497H12.5015V6.92383H12.9015ZM12.9015 10.8539V6.92383H12.5015V10.8539H12.9015ZM12.9015 14.9702V10.8539H12.5015V14.9702H12.9015ZM11.3018 16.5591C12.1826 16.5591 12.9015 15.848 12.9015 14.9702H12.5015C12.5015 15.6241 11.9646 16.1591 11.3018 16.1591V16.5591ZM1.97007 16.5591H11.3018V16.1591H1.97007V16.5591ZM0.370312 14.9702C0.370312 15.848 1.08926 16.5591 1.97007 16.5591V16.1591C1.30723 16.1591 0.770313 15.6241 0.770313 14.9702H0.370312ZM0.370312 1.94553V14.9702H0.770313V1.94553H0.370312ZM1.97007 0.356641C1.08926 0.356641 0.370312 1.06777 0.370312 1.94553H0.770313C0.770313 1.29162 1.30723 0.756641 1.97007 0.756641V0.356641ZM9.98207 0.356641H1.97007V0.756641H9.98207V0.356641ZM11.1127 0.821468C10.8107 0.521773 10.4085 0.356641 9.98207 0.356641V0.756641C10.3034 0.756641 10.6042 0.880397 10.831 1.10539L11.1127 0.821468ZM12.4324 2.13094L11.1127 0.821463L10.831 1.1054L12.1506 2.41487L12.4324 2.13094ZM12.9015 3.25497C12.9015 2.83043 12.7345 2.43063 12.4324 2.13093L12.1507 2.41489C12.3774 2.63981 12.5015 2.93754 12.5015 3.25497H12.9015ZM9.90408 1.68284L9.92632 1.68265L9.92285 1.28266L9.90061 1.28285L9.90408 1.68284ZM10.1023 3.3347V1.48285H9.70234V3.3347H10.1023ZM11.7687 3.1347H9.90234V3.5347H11.7687V3.1347ZM11.5688 3.31393L11.5687 3.33374L11.9687 3.33566L11.9688 3.31586L11.5688 3.31393ZM11.4911 3.06986C11.5671 3.14532 11.5695 3.2192 11.5688 3.31347L11.9688 3.31632C11.9695 3.21127 11.974 2.9855 11.7729 2.78595L11.4911 3.06986ZM10.1714 1.7604L11.4911 3.06988L11.7729 2.78594L10.4532 1.47646L10.1714 1.7604ZM9.9271 1.68264C10.0141 1.68154 10.0938 1.68333 10.1715 1.76042L10.4532 1.47645C10.2509 1.27574 10.02 1.28144 9.92207 1.28267L9.9271 1.68264ZM11.3015 15.633C11.6678 15.633 11.9681 15.3373 11.9681 14.9701H11.5681C11.5681 15.1134 11.4498 15.233 11.3015 15.233V15.633ZM1.96982 15.633H11.3015V15.233H1.96982V15.633ZM1.30324 14.9701C1.30324 15.3373 1.60356 15.633 1.96982 15.633V15.233C1.82153 15.233 1.70324 15.1134 1.70324 14.9701H1.30324ZM1.30324 1.94538V14.9701H1.70324V1.94538H1.30324ZM1.96982 1.28242C1.60356 1.28242 1.30324 1.57818 1.30324 1.94538H1.70324C1.70324 1.80203 1.82153 1.68242 1.96982 1.68242V1.28242ZM8.96859 1.28242H1.96982V1.68242H8.96859V1.28242ZM9.16859 3.79724V1.48242H8.76859V3.79724H9.16859ZM9.43518 4.0602C9.28648 4.0602 9.16859 3.94099 9.16859 3.79724H8.76859C8.76859 4.16484 9.06851 4.4602 9.43518 4.4602V4.0602ZM11.7681 4.0602H9.43518V4.4602H11.7681V4.0602ZM11.9681 7.61133V4.2602H11.5681V7.61133H11.9681ZM11.7681 7.81133H11.7756V7.41133H11.7681V7.81133ZM11.5756 7.61133V14.4967H11.9756V7.61133H11.5756ZM11.7756 14.2967H11.7681V14.6967H11.7756V14.2967ZM11.9681 14.9701V14.4967H11.5681V14.9701H11.9681Z" fill="#2A292A"/>
<path d="M9.54217 5.29785H2.97312C2.71399 5.29785 2.50391 5.5 2.50391 5.74935C2.50391 5.9987 2.71399 6.20085 2.97312 6.20085H9.54217C9.80131 6.20085 10.0114 5.9987 10.0114 5.74935C10.0114 5.5 9.80131 5.29785 9.54217 5.29785Z" fill="#2A292A"/>
<path d="M7.61317 7.10352H2.96838C2.71187 7.10352 2.50391 7.30567 2.50391 7.55501C2.50391 7.80436 2.71187 8.00651 2.96838 8.00651H7.61317C7.86968 8.00651 8.07765 7.80436 8.07765 7.55501C8.07765 7.30567 7.86968 7.10352 7.61317 7.10352Z" fill="#2A292A"/>
<path d="M7.61317 8.90918H2.96838C2.71187 8.90918 2.50391 9.11133 2.50391 9.36068C2.50391 9.61003 2.71187 9.81218 2.96838 9.81218H7.61317C7.86968 9.81218 8.07765 9.61003 8.07765 9.36068C8.07765 9.11133 7.86968 8.90918 7.61317 8.90918Z" fill="#2A292A"/>
<path d="M9.54624 12.6504H6.73094C6.4718 12.6504 6.26172 12.8525 6.26172 13.1019C6.26172 13.3512 6.4718 13.5534 6.73094 13.5534H9.54624C9.80538 13.5534 10.0155 13.3512 10.0155 13.1019C10.0155 12.8525 9.80538 12.6504 9.54624 12.6504Z" fill="#2A292A"/>
</svg>
