<svg width="17" height="16" viewBox="0 0 17 16" fill="none" xmlns="http://www.w3.org/2000/svg">
<path fill-rule="evenodd" clip-rule="evenodd" d="M16.2979 14.0489L12.0957 9.84668C12.794 8.83413 13.2043 7.60786 13.2043 6.2856C13.2043 2.81366 10.3906 0 6.91866 0C3.44672 0 0.633057 2.81366 0.633057 6.2856C0.633057 9.75754 3.44672 12.5712 6.91866 12.5712C8.24092 12.5712 9.46719 12.1609 10.4797 11.4627L14.6819 15.6649C15.1288 16.1117 15.8522 16.1117 16.2979 15.6649C16.7448 15.2192 16.7448 14.4946 16.2979 14.0489ZM2.34731 6.2856C2.34731 3.76108 4.39413 1.71426 6.91866 1.71426C9.44318 1.71426 11.49 3.76108 11.49 6.2856C11.49 8.81013 9.44318 10.8569 6.91866 10.8569C4.39413 10.8569 2.34731 8.81013 2.34731 6.2856Z" fill="#66332B"/>
</svg>
